HIERARCHY
ROOT Hips
{
	OFFSET 0.00000 0.00000 0.00000
	CHANNELS 6 Xposition Yposition Zposition Zrotation Yrotation Xrotation 
	JOINT LHipJoint
	{
		OFFSET 0 0 0
		CHANNELS 3 Zrotation Yrotation Xrotation
		JOINT LeftUpLeg
		{
			OFFSET 1.88772 -1.62769 0.85636
			CHANNELS 3 Zrotation Yrotation Xrotation
			JOINT LeftLeg
			{
				OFFSET 2.39836 -6.58946 0.00000
				CHANNELS 3 Zrotation Yrotation Xrotation
				JOINT LeftFoot
				{
					OFFSET 2.78523 -7.65237 0.00000
					CHANNELS 3 Zrotation Yrotation Xrotation
					JOINT LeftToeBase
					{
						OFFSET 0.19551 -0.53715 1.90694
						CHANNELS 3 Zrotation Yrotation Xrotation
						End Site
						{
							OFFSET 0.00000 -0.00000 0.99735
						}
					}
				}
			}
		}
	}
	JOINT RHipJoint
	{
		OFFSET 0 0 0
		CHANNELS 3 Zrotation Yrotation Xrotation
		JOINT RightUpLeg
		{
			OFFSET -1.74282 -1.62769 0.85636
			CHANNELS 3 Zrotation Yrotation Xrotation
			JOINT RightLeg
			{
				OFFSET -2.36062 -6.48575 0.00000
				CHANNELS 3 Zrotation Yrotation Xrotation
				JOINT RightFoot
				{
					OFFSET -2.76258 -7.59014 0.00000
					CHANNELS 3 Zrotation Yrotation Xrotation
					JOINT RightToeBase
					{
						OFFSET -0.19308 -0.53048 2.03952
						CHANNELS 3 Zrotation Yrotation Xrotation
						End Site
						{
							OFFSET -0.00000 -0.00000 1.06031
						}
					}
				}
			}
		}
	}
	JOINT LowerBack
	{
		OFFSET 0 0 0
		CHANNELS 3 Zrotation Yrotation Xrotation
		JOINT Spine
		{
			OFFSET -0.08299 2.03160 -0.30721
			CHANNELS 3 Zrotation Yrotation Xrotation
			JOINT Spine1
			{
				OFFSET -0.01030 2.00603 0.13891
				CHANNELS 3 Zrotation Yrotation Xrotation
				JOINT Neck
				{
					OFFSET 0 0 0
					CHANNELS 3 Zrotation Yrotation Xrotation
					JOINT Neck1
					{
						OFFSET 0.04282 1.69578 0.19991
						CHANNELS 3 Zrotation Yrotation Xrotation
						JOINT Head
						{
							OFFSET -0.08665 1.66622 -0.03785
							CHANNELS 3 Zrotation Yrotation Xrotation
							End Site
							{
								OFFSET -0.03699 1.83329 -0.04094
							}
						}
					}
				}
				JOINT LeftShoulder
				{
					OFFSET 0 0 0
					CHANNELS 3 Zrotation Yrotation Xrotation
					JOINT LeftArm
					{
						OFFSET 3.04219 1.50803 -0.05347
						CHANNELS 3 Zrotation Yrotation Xrotation
						JOINT LeftForeArm
						{
							OFFSET 5.79199 -0.00000 0.00000
							CHANNELS 3 Zrotation Yrotation Xrotation
							JOINT LeftHand
							{
								OFFSET 3.49908 -0.00000 0.00000
								CHANNELS 3 Zrotation Yrotation Xrotation
								JOINT LeftFingerBase
								{
									OFFSET 0 0 0
									CHANNELS 3 Zrotation Yrotation Xrotation
									JOINT LeftHandIndex1
									{
										OFFSET 0.59386 -0.00000 0.00000
										CHANNELS 3 Zrotation Yrotation Xrotation
										End Site
										{
											OFFSET 0.47879 -0.00000 0.00000
										}
									}
								}
								JOINT LThumb
								{
									OFFSET 0 0 0
									CHANNELS 3 Zrotation Yrotation Xrotation
									End Site
									{
										OFFSET 0.48610 -0.00000 0.48610
									}
								}
							}
						}
					}
				}
				JOINT RightShoulder
				{
					OFFSET 0 0 0
					CHANNELS 3 Zrotation Yrotation Xrotation
					JOINT RightArm
					{
						OFFSET -3.30316 1.18853 0.11175
						CHANNELS 3 Zrotation Yrotation Xrotation
						JOINT RightForeArm
						{
							OFFSET -5.73799 -0.00000 0.00000
							CHANNELS 3 Zrotation Yrotation Xrotation
							JOINT RightHand
							{
								OFFSET -3.57916 -0.00000 -0.00000
								CHANNELS 3 Zrotation Yrotation Xrotation
								JOINT RightFingerBase
								{
									OFFSET 0 0 0
									CHANNELS 3 Zrotation Yrotation Xrotation
									JOINT RightHandIndex1
									{
										OFFSET -0.61558 -0.00000 0.00000
										CHANNELS 3 Zrotation Yrotation Xrotation
										End Site
										{
											OFFSET -0.49629 -0.00000 0.00000
										}
									}
								}
								JOINT RThumb
								{
									OFFSET 0 0 0
									CHANNELS 3 Zrotation Yrotation Xrotation
									End Site
									{
										OFFSET -0.50387 -0.00000 0.50387
									}
								}
							}
						}
					}
				}
			}
		}
	}
}
MOTION
Frames: 6
Frame Time: 0.00769231
0.00 0.00 0.00 -358.2960 20.9654 1.1304 0.0000 0.0000 0.0000 -22.1082 -4.7104 -25.8137 8.6179 16.5554 54.7590 2.6851 -5.2975 -29.8651 0.1725 -2.6756 -7.3770 0.0000 0.0000 0.0000 9.2104 8.0309 -47.4567 -13.0116 -18.7863 69.1615 -0.0413 -4.9289 -8.2816 -1.8657 8.5805 -24.4918 -8.5047 -0.5866 13.8790 -1.1488 -2.3346 -1.5296 4.0608 -0.7143 -9.2072 4.2530 -2.8457 -2.3849 -3.3026 -3.9343 -2.9937 -1.7478 -1.9946 -0.6849 0.0000 -0.0000 0.0000 -78.8097 12.9239 41.1386 33.9732 -44.0648 -14.0944 -0.0000 0.0000 -33.6738 19.4176 -23.2228 -7.9131 -7.1250 0.0000 -0.0000 -6.0100 5.6304 5.4220 0.0000 -0.0000 0.0000 79.4443 -23.7627 50.8141 -94.9848 59.9059 -64.3156 0.0000 -0.0000 -11.9077 -36.2251 -23.6410 16.3707 7.1250 -0.0000 -0.0000 -8.0801 -58.2832 2.6367
0.00 0.00 0.00 -358.8290 23.7676 0.6892 0.0000 0.0000 0.0000 -21.4859 -6.0082 -20.6705 7.0808 15.3996 49.1794 2.3834 -4.9974 -28.0983 0.2929 -3.4804 -9.6192 0.0000 0.0000 0.0000 9.2694 8.7503 -43.5546 -10.4615 -17.6613 61.0201 -0.0912 -5.3322 -9.9632 -1.7253 8.2689 -23.5338 -7.7940 -1.4605 13.8575 -0.5074 -3.3286 -1.7146 4.5625 -1.2035 -9.2611 3.6780 -2.8964 -2.2644 -3.5410 -3.9805 -2.3602 -1.7258 -2.0096 -0.5022 -0.0000 -0.0000 0.0000 -79.0612 12.9659 41.1415 37.6367 -46.6057 -16.7011 -0.0000 0.0000 -33.1875 18.1370 -21.1560 -6.7423 -7.1250 0.0000 -0.0000 -6.6641 7.9453 5.7188 -0.0000 -0.0000 0.0000 79.1083 -26.6984 49.7085 -111.7549 58.1339 -78.7223 0.0000 -0.0000 -9.7347 -32.8949 -22.2569 13.7654 7.1250 -0.0000 -0.0000 -4.3997 -55.9106 1.1793
0.00 0.00 0.00 -358.0500 26.9921 1.9117 0.0000 0.0000 0.0000 -21.9180 -8.2010 -16.8279 5.8131 14.2447 44.2268 2.1965 -5.6965 -26.8322 0.2586 -3.2719 -9.0368 0.0000 0.0000 0.0000 7.9902 8.2414 -41.6712 -8.9162 -16.7535 55.8000 0.0286 -6.4361 -8.3997 -0.8776 5.9724 -16.7043 -8.0250 -2.1833 13.3735 -0.0859 -4.2782 -2.2252 5.3237 -1.6175 -9.3716 2.9425 -3.2347 -2.3047 -4.1704 -4.4228 -2.1700 -1.8005 -2.2239 -0.4516 -0.0000 0.0000 0.0000 -79.0871 13.1771 42.0277 42.4414 -49.4516 -20.2753 -0.0000 0.0000 -34.1347 17.7037 -20.7755 -6.4599 -7.1250 0.0000 -0.0000 -6.9170 8.3943 5.8773 -0.0000 0.0000 0.0000 78.6265 -29.9598 47.1670 -129.3984 53.2353 -93.3446 0.0000 -0.0000 -7.1570 -32.9523 -22.0764 13.6922 7.1250 -0.0000 -0.0000 -4.4927 -55.7199 1.1835
0.00 0.00 0.00 -356.3890 30.3099 4.4603 0.0000 0.0000 0.0000 -22.7472 -9.9647 -14.4448 4.7295 13.0725 39.6406 2.0010 -5.8224 -25.5430 0.4290 -4.2034 -11.6497 0.0000 0.0000 0.0000 6.6586 6.4745 -40.8523 -8.1041 -16.1953 52.9368 0.0986 -6.5992 -6.1982 -1.1478 6.8028 -19.1324 -9.4097 -2.6592 11.0719 0.4713 -4.8372 -2.0613 6.6178 -1.9162 -7.6308 1.5421 -3.1861 -2.9280 -4.0780 -4.3618 -3.3000 -1.5284 -2.1772 -0.6599 -0.0000 -0.0000 0.0000 -79.3629 12.1061 43.5260 48.5234 -52.3823 -24.9997 -0.0000 0.0000 -35.1317 17.4201 -20.9324 -6.3961 -7.1250 0.0000 -0.0000 -7.1071 8.2709 6.0588 -0.0000 -0.0000 0.0000 77.6805 -31.9602 41.4590 -144.6191 45.0822 -104.9175 0.0000 -0.0000 -0.5832 -36.5690 -16.6711 12.0141 7.1250 -0.0000 -0.0000 -8.7971 -50.2229 1.1402
0.00 0.00 0.00 -357.6610 36.7274 6.5118 0.0000 0.0000 0.0000 -19.4886 -14.9763 -13.4448 4.1629 12.3741 37.0687 1.6339 -6.9992 -22.9113 0.2638 -3.3044 -9.1273 0.0000 0.0000 0.0000 9.2662 4.6803 -36.6328 -6.6941 -15.0688 47.7077 -0.0872 -7.3624 -12.2570 -0.8901 6.0135 -16.8237 -6.3407 -2.8777 9.6221 1.0027 -4.5785 -2.5501 5.3418 -1.9158 -7.5384 0.3980 -5.0961 -3.8056 -2.6357 -6.8381 -3.0817 -0.9120 -3.4151 -0.4281 -0.0000 -0.0000 0.0000 -76.7909 10.7555 49.2917 58.9916 -56.0352 -33.5034 -0.0000 0.0000 -37.4723 18.7400 -22.5974 -7.4273 -7.1250 0.0000 -0.0000 -6.3836 6.3773 5.6712 -0.0000 -0.0000 0.0000 68.3414 -27.7580 15.9379 -158.0206 32.9537 -113.4254 0.0000 -0.0000 -5.9291 -41.9887 -18.2333 15.7279 7.1250 -0.0000 -0.0000 -14.7547 -53.2770 3.0563
0.00 0.00 0.00 -358.3230 38.1641 7.5707 0.0000 0.0000 0.0000 -17.4800 -16.8456 -16.1871 4.8607 13.2252 40.2174 1.4142 -6.9455 -21.2760 0.9542 -6.2205 -17.4255 0.0000 0.0000 0.0000 11.4355 4.0785 -36.4128 -6.1934 -14.6132 45.7530 0.0220 -10.4469 -14.5287 -1.1818 6.8992 -19.4172 -3.2874 -2.0355 9.5899 0.7778 -3.0834 -2.7255 3.1748 -1.3166 -8.0617 0.4900 -6.3277 -2.5275 -1.5164 -8.4760 -3.4580 -0.5412 -4.2302 -0.7322 0.0000 0.0000 0.0000 -75.4149 6.1634 52.8835 60.4910 -56.4394 -34.7499 -0.0000 0.0000 -36.6167 17.6102 -23.0812 -7.0933 -7.1250 0.0000 -0.0000 -7.1250 6.0466 6.3856 0.0000 0.0000 0.0000 44.8858 -13.8016 -8.1760 -148.3543 42.2629 -107.4981 0.0000 -0.0000 -21.3761 -40.2452 -27.7980 21.5407 7.1250 -0.0000 -0.0000 -13.0560 -64.1576 6.1100
